<?xml version="1.0" encoding="UTF-8"?>
<svg width="102px" height="98px" viewBox="0 0 102 98" version="1.1" xmlns="http://www.w3.org/2000/svg" xmlns:xlink="http://www.w3.org/1999/xlink">
    <!-- Generator: Sketch 48 (47235) - http://www.bohemiancoding.com/sketch -->
    <title>Page 1</title>
    <desc>Created with Sketch.</desc>
    <defs>
        <polygon id="path-1" points="0.000154907094 0.0003 101.920591 0.0003 101.920591 97.4483 0.000154907094 97.4483"></polygon>
    </defs>
    <g id="Desktop_home" stroke="none" stroke-width="1" fill="none" fill-rule="evenodd" transform="translate(-689.000000, -518.000000)">
        <g id="Page-1" transform="translate(689.000000, 518.000000)">
            <mask id="mask-2" fill="white">
                <use xlink:href="#path-1"></use>
            </mask>
            <g id="Clip-2"></g>
            <path d="M55.9285,3.6098 L64.3775,29.6118 C65.0765,31.7648 67.0825,33.2218 69.3465,33.2218 L96.6865,33.2218 C101.7465,33.2218 103.8515,39.6978 99.7575,42.6728 L77.6385,58.7428 C75.8075,60.0728 75.0405,62.4308 75.7405,64.5838 L84.1895,90.5858 C85.7525,95.3998 80.2435,99.4018 76.1505,96.4268 L54.0315,80.3568 C52.1995,79.0268 49.7205,79.0268 47.8895,80.3568 L25.7705,96.4268 C21.6765,99.4018 16.1675,95.3998 17.7315,90.5858 L26.1805,64.5838 C26.8795,62.4308 26.1135,60.0728 24.2825,58.7428 L2.1635,42.6728 C-1.9305,39.6978 0.1735,33.2218 5.2345,33.2218 L32.5745,33.2218 C34.8385,33.2218 36.8445,31.7648 37.5435,29.6118 L45.9915,3.6098 C47.5555,-1.2032 54.3655,-1.2032 55.9285,3.6098" id="Fill-1" fill="#FFFFFF" mask="url(#mask-2)"></path>
        </g>
    </g>
</svg>