<?xml version="1.0" encoding="utf-8"?>
<!-- Generator: Adobe Illustrator 21.0.0, SVG Export Plug-In . SVG Version: 6.00 Build 0)  -->
<svg version="1.1" id="Ebene_1" xmlns="http://www.w3.org/2000/svg" xmlns:xlink="http://www.w3.org/1999/xlink" x="0px" y="0px"
	 viewBox="0 0 180 180" style="enable-background:new 0 0 180 180;" xml:space="preserve">
<style type="text/css">
	.st0{filter:url(#Adobe_OpacityMaskFilter);}
	.st1{fill:#FFFFFF;}
	.st2{mask:url(#mask-2);fill:#FFFFFF;}
</style>
<title>Page 1</title>
<desc>Created with Sketch.</desc>
<g id="Desktop_home" transform="translate(-231.000000, -517.000000)">
	<g id="Page-1" transform="translate(231.000000, 517.000000)">
		<g id="Clip-2">
		</g>
		<defs>
			<filter id="Adobe_OpacityMaskFilter" filterUnits="userSpaceOnUse" x="10.5" y="41.5" width="159" height="97">
				<feColorMatrix  type="matrix" values="1 0 0 0 0  0 1 0 0 0  0 0 1 0 0  0 0 0 1 0"/>
			</filter>
		</defs>
		<mask maskUnits="userSpaceOnUse" x="10.5" y="41.5" width="159" height="97" id="mask-2">
			<g class="st0">
				<polygon id="path-1" class="st1" points="10.5,41.5 169.5,41.5 169.5,138.5 10.5,138.5 				"/>
			</g>
		</mask>
		<path id="Fill-1" class="st2" d="M124.4,91c-8.7,0-15.8-7.1-15.8-15.8c0-8.7,7.1-15.8,15.8-15.8s15.8,7.1,15.8,15.8
			C140.2,83.9,133.1,91,124.4,91 M59.2,91c-8.8,0-15.8-7.1-15.8-15.8c0-8.7,7.1-15.8,15.8-15.8c8.7,0,15.8,7.1,15.8,15.8
			C75,83.9,67.9,91,59.2,91 M130.4,41.5H49.6c-21.5,0-39.1,17.5-39.1,38.9v19.2c0,21.4,17.6,38.9,39.1,38.9h23.3
			c2.9,0,5.1-2.3,5.1-5.2v-0.1c0-16.7,5.6-30.2,12.4-30.2s12.4,13.5,12.4,30.2v0.1c0,2.8,2.2,5.2,5.1,5.2h22.6
			c21.5,0,39.1-17.5,39.1-38.9V80.4C169.5,59,151.9,41.5,130.4,41.5"/>
	</g>
</g>
</svg>
